<?xml version="1.0" encoding="UTF-8"?>
<svg id="Capa_1" data-name="Capa 1" xmlns="http://www.w3.org/2000/svg" viewBox="0 0 841.89 261">
  <defs>
    <style>
      .cls-1 {
        fill: #1d1d1b;
      }
    </style>
  </defs>
  <g>
    <path class="cls-1" d="m463.91,202.69h-31.9V54.89h31.9v147.8Z"/>
    <path class="cls-1" d="m408.98,202.69h-7.66l-12.29-19.37c-3.02,2.71-6.21,5.24-9.57,7.6-3.37,2.35-6.9,4.41-10.62,6.15-3.71,1.74-7.52,3.11-11.42,4.12-3.91,1-7.87,1.51-11.89,1.51-8.74,0-16.96-1.47-24.65-4.41-7.69-2.94-14.42-7.21-20.18-12.82-5.76-5.6-10.3-12.46-13.63-20.58-3.33-8.12-4.99-17.36-4.99-27.72,0-9.66,1.66-18.54,4.99-26.62,3.33-8.08,7.87-15.02,13.63-20.82,5.76-5.8,12.49-10.3,20.18-13.51,7.69-3.2,15.91-4.81,24.65-4.81,4.02,0,8,.5,11.94,1.51,3.94,1.01,7.77,2.4,11.49,4.17,3.71,1.78,7.25,3.87,10.61,6.26,3.36,2.4,6.51,4.99,9.46,7.78l12.29-14.73h7.66v126.31Zm-31.9-65.53c0-4.33-.83-8.53-2.49-12.59-1.66-4.05-3.93-7.65-6.79-10.79-2.86-3.13-6.21-5.64-10.04-7.53-3.83-1.89-7.9-2.84-12.23-2.84s-8.41.73-12.24,2.2c-3.83,1.47-7.15,3.63-9.97,6.49-2.83,2.87-5.05,6.4-6.67,10.62-1.62,4.21-2.43,9.02-2.43,14.44s.81,10.22,2.43,14.44c1.62,4.22,3.85,7.76,6.67,10.62,2.82,2.86,6.15,5.03,9.97,6.49,3.83,1.47,7.91,2.2,12.24,2.2s8.41-.94,12.23-2.84c3.83-1.89,7.17-4.41,10.04-7.53,2.86-3.14,5.12-6.73,6.79-10.79,1.66-4.06,2.49-8.26,2.49-12.59Z"/>
    <path class="cls-1" d="m538.91,169.98c1.24.39,2.48.64,3.71.76,1.24.11,2.47.17,3.71.17,3.09,0,6.07-.42,8.93-1.28,2.86-.85,5.55-2.06,8.06-3.65,2.51-1.58,4.75-3.51,6.73-5.8,1.97-2.28,3.57-4.81,4.81-7.59l23.19,23.31c-2.94,4.18-6.32,7.93-10.15,11.25-3.83,3.33-7.96,6.15-12.41,8.47-4.44,2.32-9.12,4.09-14.03,5.28-4.91,1.2-9.96,1.8-15.14,1.8-8.74,0-16.96-1.62-24.65-4.87-7.69-3.25-14.42-7.78-20.18-13.57-5.76-5.8-10.3-12.71-13.63-20.71-3.33-8-4.99-16.8-4.99-26.39s1.66-18.79,4.99-26.91c3.33-8.12,7.87-15.04,13.63-20.76,5.76-5.73,12.49-10.17,20.18-13.34,7.69-3.17,15.91-4.75,24.65-4.75,5.18,0,10.25.61,15.19,1.85,4.95,1.24,9.64,3.02,14.09,5.34,4.44,2.32,8.6,5.16,12.47,8.53,3.86,3.36,7.26,7.13,10.21,11.31l-59.39,71.56Zm16.24-65.3c-1.47-.55-2.92-.89-4.35-1.05-1.43-.15-2.92-.23-4.46-.23-4.33,0-8.41.79-12.24,2.38-3.83,1.58-7.15,3.84-9.97,6.79-2.83,2.93-5.05,6.47-6.67,10.61-1.62,4.14-2.43,8.8-2.43,13.97,0,1.16.06,2.47.17,3.94.12,1.47.31,2.96.58,4.46.27,1.51.6,2.96.99,4.35.38,1.4.89,2.63,1.51,3.72l36.89-48.95Z"/>
    <path class="cls-1" d="m828.25,148.29c-2.09-4.56-4.91-8.47-8.47-11.71s-7.74-5.78-12.53-7.59c-4.79-1.82-9.9-2.73-15.31-2.73h-32.94c-2.17,0-4.02-.79-5.57-2.37-1.55-1.59-2.32-3.5-2.32-5.74s.77-4.02,2.32-5.57,3.4-2.32,5.57-2.32h64.14v-31.55h-64.14c-5.49,0-10.63,1.03-15.43,3.07-4.8,2.05-8.97,4.85-12.53,8.41-3.56,3.56-6.36,7.74-8.41,12.53-2.05,4.79-3.07,9.94-3.07,15.43s1.03,10.63,3.07,15.43c2.05,4.79,4.85,8.99,8.41,12.58,3.56,3.6,7.73,6.44,12.53,8.53,4.79,2.09,9.93,3.14,15.43,3.14h32.94c2.16,0,4.02.34,5.57,1.04,1.54.69,2.32,2.16,2.32,4.41s-.78,4.02-2.32,5.57c-1.55,1.55-3.41,2.32-5.57,2.32h-109.96c-3.33,0-6.45-.64-9.39-1.92-2.94-1.27-5.49-2.99-7.66-5.16-2.17-2.16-3.87-4.69-5.1-7.59-1.24-2.9-1.85-6.01-1.85-9.34v-36.88h48.02v-31.55h-48.02v-23.81h-31.55v23.81h-15.43v31.55h15.43v36.88c0,7.66,1.45,14.85,4.35,21.58,2.9,6.73,6.88,12.63,11.95,17.69,5.06,5.06,10.96,9.05,17.69,11.95s13.92,4.35,21.57,4.35h109.96c5.41,0,10.51-1.03,15.31-3.08,4.79-2.04,8.97-4.87,12.53-8.47,3.56-3.59,6.38-7.77,8.47-12.52,2.09-4.76,3.13-9.88,3.13-15.37s-1.05-10.4-3.13-14.97Z"/>
  </g>
  <g>
    <path class="cls-1" d="m221.42,160.21c-3.95,26.42-54.64,4.1-76.05,19.89-21.26,15.64-7.16,64.83-33.58,60.89-12.45-1.82-23.54-5.16-33.4-9.87-.3-6.68.15-13.51,1.21-20.65,3.95-26.57,16.55-47.68,37.81-63.32,21.41-15.64,45.25-21.41,71.82-17.46,12.45,1.82,23.53,5.01,33.25,9.72.46,6.68,0,13.67-1.06,20.8Z"/>
    <path class="cls-1" d="m200.81,68.36c-12.71-17-29.88-29.21-50.01-35.98-11.06-3.63-23.44-4.46-34.83-5.78-29.71-3.8-59.25-6.77-88.97-10.23l-14.69,97.55c-4.79,32.52.49,59.58,16.17,81.21,9.24,12.54,20.96,22.28,35.65,28.88-.33-7.26.17-14.69,1.32-22.45,4.29-28.88,17.99-51.83,41.1-68.83,23.27-17,49.19-23.27,78.07-18.98,13.53,1.98,25.58,5.45,36.15,10.56-.82-20.63-7.43-39.28-19.97-55.95Zm-129.99,51.66v.17h-.17c-4.13-1.81-7.26-4.62-9.74-8.09-4.29-5.94-5.78-13.53-4.46-22.45l3.96-27.07c8.25.83,16.51,1.65,24.76,2.81,3.14.33,6.6.5,9.74,1.65,5.61,1.82,10.4,5.12,13.87,9.9,3.47,4.62,5.28,9.74,5.61,15.51-17.72,4.58-29.2,8.29-43.57,27.56Z"/>
  </g>
</svg>