<?xml version="1.0" encoding="UTF-8"?>
<svg id="Capa_1" data-name="Capa 1" xmlns="http://www.w3.org/2000/svg" viewBox="0 0 903.12 261">
  <defs>
    <style>
      .cls-1 {
        fill: #0a047c;
      }
    </style>
  </defs>
  <path class="cls-1" d="m301.44,247.11h-51.04V10.61h51.04v236.5Z"/>
  <path class="cls-1" d="m213.55,247.11h-12.25l-19.67-31c-4.83,4.33-9.93,8.38-15.31,12.16-5.39,3.77-11.05,7.05-16.99,9.84-5.94,2.79-12.03,4.98-18.28,6.59-6.25,1.6-12.59,2.41-19.02,2.41-13.99,0-27.13-2.35-39.44-7.05-12.31-4.71-23.07-11.54-32.29-20.52-9.22-8.96-16.49-19.94-21.81-32.94-5.32-13-7.98-27.78-7.98-44.36,0-15.46,2.66-29.67,7.98-42.6,5.32-12.93,12.59-24.03,21.81-33.31,9.22-9.28,19.98-16.48,32.29-21.62,12.31-5.13,25.46-7.7,39.44-7.7,6.43,0,12.8.79,19.11,2.41,6.31,1.61,12.44,3.83,18.38,6.67,5.94,2.85,11.6,6.19,16.98,10.02,5.38,3.85,10.42,7.99,15.13,12.45l19.67-23.57h12.25v202.11Zm-51.04-104.86c0-6.93-1.33-13.64-3.99-20.14-2.66-6.49-6.28-12.24-10.86-17.26-4.58-5.01-9.93-9.03-16.06-12.06-6.12-3.03-12.65-4.55-19.58-4.55s-13.45,1.17-19.58,3.53c-6.12,2.35-11.44,5.81-15.96,10.39-4.52,4.59-8.08,10.24-10.68,16.99-2.6,6.74-3.9,14.44-3.9,23.1s1.3,16.36,3.9,23.1c2.6,6.75,6.16,12.42,10.68,16.99,4.51,4.57,9.84,8.05,15.96,10.39,6.13,2.35,12.65,3.53,19.58,3.53s13.45-1.51,19.58-4.55c6.13-3.03,11.48-7.05,16.06-12.06,4.57-5.02,8.19-10.76,10.86-17.26,2.66-6.5,3.99-13.21,3.99-20.14Z"/>
  <path class="cls-1" d="m421.46,194.77c1.98.62,3.96,1.02,5.94,1.21,1.98.17,3.96.27,5.94.27,4.94,0,9.71-.67,14.29-2.05,4.57-1.36,8.88-3.3,12.9-5.84,4.02-2.53,7.61-5.62,10.76-9.28,3.16-3.65,5.72-7.7,7.7-12.15l37.11,37.3c-4.7,6.69-10.11,12.69-16.24,18-6.12,5.33-12.74,9.85-19.86,13.55-7.11,3.71-14.6,6.54-22.46,8.45-7.86,1.92-15.93,2.88-24.22,2.88-13.99,0-27.13-2.6-39.44-7.79-12.31-5.21-23.07-12.45-32.29-21.72-9.22-9.28-16.49-20.33-21.81-33.14-5.32-12.81-7.98-26.88-7.98-42.22s2.66-30.07,7.98-43.05c5.32-13,12.59-24.07,21.81-33.22,9.22-9.16,19.98-16.28,32.29-21.35,12.31-5.07,25.46-7.6,39.44-7.6,8.29,0,16.39.98,24.31,2.96,7.92,1.98,15.43,4.83,22.55,8.54,7.11,3.71,13.76,8.26,19.95,13.64,6.18,5.38,11.62,11.41,16.33,18.1l-95.03,114.51Zm25.99-104.49c-2.35-.87-4.68-1.43-6.96-1.68-2.29-.24-4.67-.36-7.14-.36-6.93,0-13.45,1.26-19.58,3.81-6.12,2.53-11.44,6.15-15.96,10.86-4.52,4.7-8.08,10.36-10.68,16.98-2.6,6.62-3.9,14.07-3.9,22.36,0,1.86.09,3.96.28,6.31.19,2.35.49,4.74.93,7.14.43,2.41.96,4.74,1.58,6.96.61,2.23,1.42,4.21,2.41,5.95l59.02-78.32Z"/>
  <path class="cls-1" d="m884.43,160.06c-3.34-7.29-7.86-13.55-13.55-18.74-5.69-5.19-12.38-9.24-20.05-12.15-7.67-2.91-15.84-4.37-24.49-4.37h-52.71c-3.46,0-6.43-1.26-8.91-3.79-2.48-2.54-3.71-5.6-3.71-9.19s1.24-6.43,3.71-8.91c2.48-2.48,5.44-3.71,8.91-3.71h102.64v-50.48h-102.64c-8.79,0-17.01,1.64-24.68,4.91-7.68,3.28-14.36,7.76-20.05,13.45-5.69,5.69-10.18,12.38-13.45,20.05-3.28,7.67-4.92,15.9-4.92,24.69s1.64,17.01,4.92,24.69c3.28,7.67,7.76,14.38,13.45,20.13,5.69,5.76,12.37,10.31,20.05,13.64,7.67,3.34,15.9,5.02,24.68,5.02h52.71c3.46,0,6.43.55,8.91,1.67,2.47,1.1,3.71,3.46,3.71,7.05s-1.24,6.43-3.71,8.91c-2.48,2.48-5.45,3.71-8.91,3.71h-175.95c-5.32,0-10.33-1.02-15.03-3.07-4.7-2.03-8.79-4.79-12.25-8.26-3.46-3.46-6.19-7.51-8.17-12.15-1.98-4.64-2.97-9.62-2.97-14.95v-59.01h76.83v-50.48h-76.83V10.61h-50.49v38.1h-24.68v50.48h24.68v59.01c0,12.26,2.32,23.76,6.96,34.52,4.64,10.76,11.01,20.21,19.12,28.31,8.1,8.1,17.54,14.48,28.3,19.12,10.76,4.64,22.27,6.96,34.52,6.96h175.95c8.66,0,16.82-1.64,24.49-4.92,7.67-3.27,14.36-7.79,20.05-13.55,5.69-5.75,10.21-12.43,13.55-20.03,3.34-7.62,5.01-15.81,5.01-24.59s-1.68-16.64-5.01-23.95Z"/>
</svg>