<?xml version="1.0" encoding="UTF-8"?>
<svg id="Capa_1" data-name="Capa 1" xmlns="http://www.w3.org/2000/svg" viewBox="0 0 239.28 261">
  <defs>
    <style>
      .cls-1 {
        fill: #0a047c;
      }
    </style>
  </defs>
  <path class="cls-1" d="m221.32,161.92c-3.95,26.42-54.64,4.1-76.05,19.89-21.26,15.64-7.16,64.83-33.58,60.89-12.45-1.82-23.54-5.16-33.4-9.87-.3-6.68.15-13.51,1.21-20.65,3.95-26.57,16.55-47.68,37.81-63.32,21.41-15.64,45.25-21.41,71.82-17.46,12.45,1.82,23.53,5.01,33.25,9.72.46,6.68,0,13.67-1.06,20.8Z"/>
  <path class="cls-1" d="m200.7,70.07c-12.71-17-29.88-29.21-50.01-35.98-11.06-3.63-23.44-4.46-34.83-5.78-29.71-3.8-59.25-6.77-88.97-10.23l-14.69,97.55c-4.79,32.52.49,59.58,16.17,81.21,9.24,12.54,20.96,22.28,35.65,28.88-.33-7.26.17-14.69,1.32-22.45,4.29-28.88,17.99-51.83,41.1-68.83,23.27-17,49.19-23.27,78.07-18.98,13.53,1.98,25.58,5.45,36.15,10.56-.82-20.63-7.43-39.28-19.97-55.95Zm-129.99,51.66v.17h-.17c-4.13-1.81-7.26-4.62-9.74-8.09-4.29-5.94-5.78-13.53-4.46-22.45l3.96-27.07c8.25.83,16.51,1.65,24.76,2.81,3.14.33,6.6.5,9.74,1.65,5.61,1.82,10.4,5.12,13.87,9.9,3.47,4.62,5.28,9.74,5.61,15.51-17.72,4.58-29.2,8.29-43.57,27.56Z"/>
</svg>